<svg width="53" height="41" viewBox="0 0 53 41" fill="none" xmlns="http://www.w3.org/2000/svg">
<path d="M0.165741 38.384V1.904L11.2537 0.895999C11.4777 0.863999 11.6857 0.848 11.8777 0.848C12.0697 0.848 12.2777 0.848 12.5017 0.848C14.8697 0.848 17.3817 1.488 20.0377 2.768C21.9577 3.696 23.5097 4.912 24.6937 6.416C25.8777 7.888 26.4697 9.712 26.4697 11.888C26.4697 13.744 26.1337 15.312 25.4617 16.592C24.7897 17.84 23.8937 18.8 22.7737 19.472C24.2457 19.792 25.5417 20.672 26.6617 22.112C27.8137 23.52 28.3897 25.552 28.3897 28.208C28.3897 30.192 27.9577 32.016 27.0937 33.68C26.2297 35.344 24.9497 36.72 23.2537 37.808C21.5897 38.864 19.5257 39.504 17.0617 39.728L4.96574 40.784L0.165741 38.384ZM12.2137 36.896C14.5817 36.672 16.5657 36.048 18.1657 35.024C19.7977 34 21.0297 32.688 21.8617 31.088C22.6937 29.456 23.1097 27.696 23.1097 25.808C23.1097 23.984 22.8057 22.464 22.1977 21.248C21.6217 20.032 20.8377 19.12 19.8457 18.512C18.8857 17.872 17.8297 17.504 16.6777 17.408L16.6297 17.216C18.0697 16.576 19.1897 15.616 19.9897 14.336C20.7897 13.056 21.1897 11.44 21.1897 9.488C21.1897 7.12 20.4057 5.168 18.8377 3.632C17.3017 2.096 15.1897 1.328 12.5017 1.328C12.3097 1.328 12.1017 1.328 11.8777 1.328C11.6857 1.328 11.4937 1.344 11.3017 1.376L0.645741 2.336V37.904L12.2137 36.896ZM7.89374 8.48L10.0537 8.288C10.2137 8.256 10.3737 8.24 10.5337 8.24C10.6937 8.24 10.8377 8.24 10.9657 8.24C12.0857 8.24 12.9017 8.496 13.4137 9.008C13.9257 9.488 14.1817 10.24 14.1817 11.264C14.1817 13.568 12.7897 14.848 10.0057 15.104L7.89374 15.296V8.48ZM12.2137 14C13.2057 13.52 13.7017 12.608 13.7017 11.264C13.7017 11.168 13.7017 11.072 13.7017 10.976C13.7017 10.88 13.6857 10.784 13.6537 10.688L12.2137 10.832V14ZM7.89374 22.064L11.1097 21.776C11.2377 21.776 11.3497 21.776 11.4457 21.776C11.5417 21.744 11.6537 21.728 11.7817 21.728C12.9977 21.728 13.9897 22.048 14.7577 22.688C15.5257 23.328 15.9097 24.272 15.9097 25.52C15.9097 28.4 14.4857 29.952 11.6377 30.176L7.89374 30.512V22.064ZM13.1737 29.36C14.6777 28.72 15.4297 27.44 15.4297 25.52C15.4297 25.36 15.4137 25.216 15.3817 25.088C15.3817 24.96 15.3657 24.832 15.3337 24.704L13.1737 24.896V29.36Z" fill="black"/>
<path d="M29.5955 37.856L19.7555 2.192L28.7315 1.424L33.5315 3.824L35.8355 13.088L38.7155 0.992001L47.4035 0.223999L52.2035 2.624L42.5555 39.536L34.3955 40.256L29.5955 37.856ZM39.0995 1.472L34.9235 19.232C34.6995 20.288 34.5075 21.344 34.3475 22.4C34.1875 23.424 34.0755 24.272 34.0115 24.944C33.9475 25.616 33.9155 25.952 33.9155 25.952H33.7715C33.7715 25.952 33.7235 25.632 33.6275 24.992C33.5635 24.32 33.4515 23.488 33.2915 22.496C33.1315 21.504 32.9235 20.48 32.6675 19.424L28.3475 1.952L20.3795 2.624L29.9315 37.376L37.3235 36.704L46.7315 0.8L39.0995 1.472Z" fill="black"/>
</svg>
